<svg width="120" height="120" viewBox="0 0 120 120" fill="none" xmlns="http://www.w3.org/2000/svg">
<path d="M95.6064 36L70.7129 60.8936L95.6064 85.7871L85 96.3936L60.1064 71.5L35.6064 96L25 85.3936L49.5 60.8936L25 36.3936L35.6064 25.7871L60.1064 50.2871L85 25.3936L95.6064 36Z" fill="#E0E0E0"/>
<path d="M60 10C87.6142 10 110 32.3858 110 60C110 87.6142 87.6142 110 60 110C32.3858 110 10 87.6142 10 60C10 32.3858 32.3858 10 60 10ZM60 25C40.67 25 25 40.67 25 60C25 79.33 40.67 95 60 95C79.33 95 95 79.33 95 60C95 40.67 79.33 25 60 25Z" fill="#E0E0E0"/>
</svg>
